<svg height="512pt" viewBox="-68 0 512 512.00014" width="512pt" xmlns="http://www.w3.org/2000/svg"><path d="m76.753906 153.8125h221.738282v170.566406h-221.738282zm0 0" fill="#ea9d2d"/><path d="m153.507812 256.152344h68.226563v102.339844h-68.226563zm0 0" fill="#f6bb92"/><path d="m224.933594 324.378906h73.554687c37.683594 0 68.226563 30.546875 68.226563 68.226563v110.867187h-358.1875v-110.867187c0-37.679688 30.546875-68.226563 68.226562-68.226563zm0 0" fill="#eea5a9"/><path d="m81.019531 204.984375h38.375v-42.640625h-38.375c-11.777343 0-21.320312 9.542969-21.320312 21.320312 0 11.773438 9.542969 21.320313 21.320312 21.320313zm0 0" fill="#f6bb92"/><path d="m294.226562 204.984375h-29.847656v-42.640625h29.847656c11.773438 0 21.320313 9.542969 21.320313 21.320312 0 11.773438-9.546875 21.320313-21.320313 21.320313zm0 0" fill="#f6bb92"/><path d="m196.152344 460.832031h17.054687v17.058594h-17.054687zm0 0" fill="#de9a9e"/><path d="m8.527344 443.777344h68.226562v59.695312h-68.226562zm0 0" fill="#f6bb92"/><path d="m298.488281 443.777344h68.226563v59.695312h-68.226563zm0 0" fill="#f6bb92"/><path d="m102.339844 61.070312v136.453126c0 47.097656 38.183594 85.28125 85.28125 85.28125 47.101562 0 85.285156-38.183594 85.285156-85.28125v-137.519532zm0 0" fill="#fdc9a6"/><g fill="#834b10"><path d="m144.980469 187.925781c-4.710938 0-8.527344-3.816406-8.527344-8.527343v-8.527344c0-4.710938 3.816406-8.527344 8.527344-8.527344 4.710937 0 8.527343 3.816406 8.527343 8.527344v8.527344c0 4.710937-3.816406 8.527343-8.527343 8.527343zm0 0"/><path d="m230.265625 187.925781c-4.710937 0-8.53125-3.816406-8.53125-8.527343v-8.527344c0-4.710938 3.820313-8.527344 8.53125-8.527344 4.707031 0 8.527344 3.816406 8.527344 8.527344v8.527344c0 4.710937-3.820313 8.527343-8.527344 8.527343zm0 0"/><path d="m196.152344 213.511719c-1.320313 0-2.625-.304688-3.804688-.894531l-17.058594-8.527344c-4.210937-2.105469-5.921874-7.222656-3.820312-11.4375l8.527344-17.054688c2.136718-4.199218 7.269531-5.875 11.46875-3.742187 4.152344 2.109375 5.84375 7.160156 3.796875 11.347656l-4.722657 9.476563 9.433594 4.707031c4.195313 2.136719 5.863282 7.273437 3.726563 11.46875-1.449219 2.839843-4.359375 4.636719-7.546875 4.65625zm0 0"/><path d="m187.621094 243.105469c-7.242188.003906-14.382813-1.675781-20.867188-4.902344-4.214844-2.105469-5.925781-7.230469-3.820312-11.445313 2.105468-4.214843 7.230468-5.925781 11.445312-3.820312 8.339844 4.152344 18.148438 4.152344 26.488282 0 4.214843-2.105469 9.339843-.394531 11.445312 3.820312 2.105469 4.214844.394531 9.339844-3.820312 11.445313-6.484376 3.226563-13.628907 4.90625-20.871094 4.902344zm0 0"/></g><path d="m88.4375 54.167969c8.472656-13.898438 23.234375-22.75 39.488281-23.671875h8.527344s17.054687-38.71875 85.28125-13.132813c10.140625 2.128907 35.222656 18.648438 43.992187 24.183594 15.707032 9.929687 32.761719 29.421875 32.761719 52.007813v68.789062h-25.582031l-54.582031-21.816406c-20.285157-8.113282-38.714844-20.265625-54.164063-35.714844l-27.707031-27.753906-34.113281 85.285156h-25.585938v-59.699219c0-25.585937 2.269532-34.691406 11.683594-48.476562zm0 0" fill="#ea9d2d"/><path d="m136.453125 324.378906h-8.527344l-8.53125 59.699219 59.726563 42.640625zm0 0" fill="#de9a9e"/><path d="m238.792969 324.378906h8.527343l8.265626 59.699219-59.433594 42.640625zm0 0" fill="#de9a9e"/><path d="m192.953125 438.496094c2.023437-1.617188 3.199219-4.070313 3.199219-6.660156v-13.644532c0-4.710937-3.820313-8.527344-8.53125-8.527344-4.707032 0-8.527344 3.816407-8.527344 8.527344v9.542969l-22.386719 17.910156c-2.023437 1.617188-3.199219 4.070313-3.199219 6.660157v51.167968h17.058594v-47.074218zm0 0" fill="#de9a9e"/><path d="m136.453125 324.378906 42.640625 102.339844h17.03125l42.667969-102.339844zm0 0" fill="#f6bb92"/><path d="m289.960938 503.472656 2.472656-2.472656c9.339844-9.339844 14.585937-22.003906 14.585937-35.210938v-7.285156c0-4.074218-.949219-8.097656-2.773437-11.742187l-12.628906-25.261719c-1.089844-2.175781-1.65625-4.578125-1.65625-7.011719v-13.355469h-17.054688v102.339844zm0 0" fill="#eea5a9"/><path d="m85.28125 503.472656-2.472656-2.472656c-9.335938-9.339844-14.582032-22.003906-14.582032-35.210938v-7.285156c-.003906-4.074218.945313-8.097656 2.773438-11.742187l12.628906-25.261719c1.089844-2.175781 1.65625-4.578125 1.652344-7.011719v-13.355469h25.585938v102.339844zm0 0" fill="#eea5a9"/><path d="m366.714844 512h-358.1875c-4.707032 0-8.527344-3.8125-8.527344-8.527344v-110.867187c0-42.324219 34.433594-76.753907 76.753906-76.753907h75.332032c4.710937 0 8.527343 3.8125 8.527343 8.527344 0 4.710938-3.816406 8.527344-8.527343 8.527344h-75.332032c-32.917968 0-59.695312 26.785156-59.695312 59.699219v102.339843h341.128906v-102.339843c0-32.914063-26.78125-59.699219-59.695312-59.699219h-73.558594c-4.714844 0-8.527344-3.816406-8.527344-8.527344 0-4.714844 3.8125-8.527344 8.527344-8.527344h73.554687c42.328125 0 76.757813 34.429688 76.757813 76.753907v110.867187c0 4.714844-3.816406 8.527344-8.53125 8.527344zm0 0"/><path d="m187.621094 290.265625c-51.726563 0-93.808594-42.085937-93.808594-93.808594v-34.113281c0-4.710938 3.816406-8.527344 8.527344-8.527344 4.710937 0 8.527344 3.816406 8.527344 8.527344v34.113281c0 42.320313 34.433593 76.75 76.753906 76.75 42.324218 0 76.753906-34.429687 76.753906-76.75v-26.652343c0-4.707032 3.816406-8.527344 8.53125-8.527344 4.710938 0 8.527344 3.820312 8.527344 8.527344v26.652343c0 51.722657-42.082032 93.808594-93.8125 93.808594zm0 0"/><path d="m144.980469 187.890625c-4.710938 0-8.527344-3.816406-8.527344-8.527344v-8.527343c0-4.710938 3.816406-8.527344 8.527344-8.527344 4.710937 0 8.527343 3.816406 8.527343 8.527344v8.527343c0 4.710938-3.816406 8.527344-8.527343 8.527344zm0 0"/><path d="m230.265625 187.890625c-4.714844 0-8.53125-3.816406-8.53125-8.527344v-8.527343c0-4.710938 3.816406-8.527344 8.53125-8.527344 4.710937 0 8.527344 3.816406 8.527344 8.527344v8.527343c0 4.710938-3.816407 8.527344-8.527344 8.527344zm0 0"/><path d="m196.140625 213.515625c-1.277344 0-2.578125-.289063-3.804687-.902344l-17.054688-8.527343c-4.210938-2.105469-5.917969-7.222657-3.820312-11.433594l8.527343-17.09375c2.105469-4.21875 7.226563-5.925782 11.441407-3.828125 4.214843 2.101562 5.929687 7.226562 3.824218 11.4375l-4.726562 9.472656 9.4375 4.714844c4.214844 2.109375 5.921875 7.230469 3.816406 11.445312-1.5 2.988281-4.507812 4.714844-7.640625 4.714844zm0 0"/><path d="m102.339844 213.453125h-21.320313c-16.457031 0-29.851562-13.394531-29.851562-29.851563 0-16.457031 13.394531-29.847656 29.851562-29.847656h21.320313c4.710937 0 8.527344 3.816406 8.527344 8.527344v42.640625c0 4.710937-3.816407 8.53125-8.527344 8.53125zm-21.320313-42.644531c-7.054687 0-12.792969 5.738281-12.792969 12.792968 0 7.054688 5.738282 12.792969 12.792969 12.792969h12.792969v-25.585937zm0 0"/><path d="m294.226562 213.515625h-21.320312c-4.714844 0-8.527344-3.820313-8.527344-8.53125v-42.640625c0-4.710938 3.8125-8.527344 8.527344-8.527344h21.320312c16.457032 0 29.847657 13.390625 29.847657 29.847656 0 16.457032-13.390625 29.851563-29.847657 29.851563zm-12.792968-17.058594h12.792968c7.054688 0 12.792969-5.738281 12.792969-12.792969 0-7.054687-5.738281-12.792968-12.792969-12.792968h-12.792968zm0 0"/><path d="m221.734375 332.90625c-4.710937 0-8.527344-3.816406-8.527344-8.527344v-46.546875c0-4.714843 3.816407-8.53125 8.527344-8.53125 4.714844 0 8.53125 3.816407 8.53125 8.53125v46.546875c0 4.710938-3.816406 8.527344-8.53125 8.527344zm0 0"/><path d="m196.125 435.246094h-17.03125c-3.445312 0-6.546875-2.074219-7.871094-5.246094l-42.640625-102.339844c-1.097656-2.632812-.808593-5.640625.773438-8.011718 1.585937-2.375 4.246093-3.800782 7.097656-3.800782h11.847656c1.441407-1.113281 3.246094-1.773437 5.207031-1.773437 4.710938 0 8.53125 3.816406 8.53125 8.53125v1.773437c0 4.710938-3.820312 8.527344-8.53125 8.527344h-4.261718l35.53125 85.28125h5.664062l35.558594-85.28125h-4.265625c-4.710937 0-8.527344-3.816406-8.527344-8.527344 0-4.714844 3.816407-8.53125 8.527344-8.53125h17.058594c2.847656 0 5.511719 1.425782 7.09375 3.800782 1.585937 2.371093 1.875 5.378906.777343 8.011718l-42.667968 102.339844c-1.324219 3.179688-4.429688 5.246094-7.871094 5.246094zm0 0"/><path d="m153.507812 331.132812c-4.707031 0-8.527343-3.816406-8.527343-8.527343v-45.839844c0-4.714844 3.820312-8.53125 8.527343-8.53125 4.710938 0 8.53125 3.816406 8.53125 8.53125v45.839844c0 4.710937-3.820312 8.527343-8.53125 8.527343zm0 0"/><path d="m179.121094 435.246094c-1.734375 0-3.46875-.527344-4.957032-1.589844l-59.722656-42.644531c-2.59375-1.847657-3.941406-4.988281-3.484375-8.144531l8.527344-59.699219c.597656-4.195313 4.195313-7.320313 8.441406-7.320313h8.527344c3.441406 0 6.546875 2.066406 7.871094 5.25l42.664062 102.339844c1.46875 3.511719.425781 7.578125-2.554687 9.949219-1.550782 1.234375-3.433594 1.859375-5.3125 1.859375zm-50.546875-55.101563 31.167969 22.261719-25.582032-61.363281zm0 0"/><path d="m196.152344 435.246094c-1.878906 0-3.757813-.617188-5.308594-1.851563-2.984375-2.371093-4.035156-6.4375-2.5625-9.957031l42.640625-102.339844c1.324219-3.175781 4.429687-5.25 7.871094-5.25h8.527343c4.253907 0 7.863282 3.140625 8.445313 7.363282l8.261719 59.699218c.433594 3.128906-.898438 6.246094-3.472656 8.09375l-59.433594 42.640625c-1.488282 1.066407-3.230469 1.601563-4.96875 1.601563zm44.878906-94.078125-25.464844 61.121093 30.863282-22.144531zm0 0"/><path d="m85.28125 512c-2.179688 0-4.363281-.832031-6.027344-2.5l-2.472656-2.472656c-11.015625-11.007813-17.082031-25.660156-17.082031-41.242188v-7.277344c0-5.398437 1.273437-10.777343 3.679687-15.574218l12.621094-25.242188c.492188-.984375.753906-2.09375.753906-3.199218v-13.359376c0-4.714843 3.820313-8.527343 8.527344-8.527343 4.710938 0 8.53125 3.8125 8.53125 8.527343v13.359376c0 3.730468-.882812 7.46875-2.550781 10.816406l-12.632813 25.269531c-1.230468 2.441406-1.875 5.179687-1.875 7.929687v7.277344c0 11.027344 4.292969 21.386719 12.085938 29.183594l2.472656 2.472656c3.332031 3.332032 3.332031 8.730469 0 12.0625-1.664062 1.664063-3.847656 2.496094-6.03125 2.496094zm0 0"/><path d="m289.960938 512c-2.179688 0-4.363282-.832031-6.027344-2.5-3.332032-3.328125-3.332032-8.726562 0-12.058594l2.472656-2.472656c7.796875-7.796875 12.082031-18.15625 12.082031-29.183594v-7.277344c0-2.742187-.648437-5.480468-1.863281-7.921874l-12.632812-25.269532c-1.675782-3.347656-2.558594-7.085937-2.558594-10.824218v-13.359376c0-4.714843 3.8125-8.527343 8.527344-8.527343 4.714843 0 8.527343 3.8125 8.527343 8.527343v13.359376c0 1.097656.257813 2.207031.757813 3.195312l12.628906 25.261719c2.398438 4.796875 3.671875 10.175781 3.671875 15.558593v7.277344c0 15.582032-6.0625 30.234375-17.082031 41.242188l-2.472656 2.472656c-1.667969 1.667969-3.847657 2.5-6.03125 2.5zm0 0"/><path d="m162.039062 512c-4.710937 0-8.53125-3.8125-8.53125-8.527344v-51.171875c0-2.679687 1.261719-5.210937 3.410157-6.820312l34.113281-25.585938c3.785156-2.820312 9.125-2.0625 11.941406 1.710938 2.832032 3.761719 2.066406 9.109375-1.707031 11.933593l-30.699219 23.027344v46.90625c0 4.714844-3.820312 8.527344-8.527344 8.527344zm0 0"/><path d="m298.488281 170.871094h-25.582031c-1.082031 0-2.15625-.207032-3.164062-.605469l-54.585938-21.816406c-21.480469-8.601563-40.664062-21.246094-57.023438-37.59375l-18.570312-18.605469-29.304688 73.261719c-1.296874 3.238281-4.433593 5.359375-7.917968 5.359375h-25.585938c-4.710937 0-8.527344-3.816406-8.527344-8.527344v-59.699219c0-26.9375 2.6875-37.921875 13.050782-53.128906 9.945312-16.191406 27.183594-26.488281 46.164062-27.570313l4.207032-.003906c7.863281-11.195312 32.65625-35.027344 92.542968-12.765625 9.871094 2.402344 27.160156 13.101563 42.667969 22.992188l3.414063 2.164062c16.957031 10.71875 36.746093 32.644531 36.746093 59.1875v68.824219c0 4.710938-3.816406 8.527344-8.53125 8.527344zm-23.941406-17.054688h15.414063v-60.296875c0-18.347656-14.457032-35.703125-28.789063-44.761719l-3.480469-2.210937c-8.261718-5.269531-30.199218-19.261719-37.710937-20.839844-.417969-.085937-.835938-.207031-1.242188-.355469-59.953125-22.5-74.339843 8.238282-74.480469 8.546876-1.367187 3.09375-4.421874 5.089843-7.804687 5.089843h-8.527344c-12.972656.75-25.191406 8.082031-32.203125 19.59375-.078125.128907-.15625.253907-.242187.378907-7.898438 11.554687-10.195313 18.6875-10.195313 43.683593v51.171875h11.277344l31.96875-79.925781c1.066406-2.660156 3.398438-4.609375 6.210938-5.183594 2.824218-.554687 5.722656.300781 7.746093 2.328125l27.707031 27.757813c14.710938 14.703125 31.96875 26.085937 51.289063 33.820312zm-186.109375-99.671875h.085938zm0 0"/><path d="m196.152344 460.832031h17.054687v17.054688h-17.054687zm0 0"/><path d="m76.753906 512h-76.753906v-76.753906h71.953125v17.054687h-54.894531v42.644531h59.695312zm0 0"/><path d="m375.246094 512h-76.757813v-17.054688h59.699219v-42.644531h-52.757812v-17.054687h69.816406zm0 0"/><path d="m153.507812 332.90625h-76.753906c-4.707031 0-8.527344-3.816406-8.527344-8.527344v-113.703125c0-4.710937 3.820313-8.53125 8.527344-8.53125 4.710938 0 8.527344 3.820313 8.527344 8.53125v105.171875h68.226562c4.710938 0 8.53125 3.816406 8.53125 8.53125 0 4.710938-3.820312 8.527344-8.53125 8.527344zm0 0"/><path d="m298.488281 332.90625h-69.648437c-4.714844 0-8.527344-3.816406-8.527344-8.527344 0-4.714844 3.8125-8.527344 8.527344-8.527344h61.121094v-110.867187c0-4.707031 3.816406-8.527344 8.527343-8.527344 4.714844 0 8.53125 3.820313 8.53125 8.527344v119.394531c0 4.710938-3.816406 8.527344-8.53125 8.527344zm0 0"/><path d="m187.621094 243.101562c-7.167969 0-14.335938-1.632812-20.871094-4.902343-4.210938-2.109375-5.917969-7.234375-3.8125-11.441407 2.101562-4.214843 7.222656-5.914062 11.441406-3.816406 8.296875 4.15625 18.191406 4.15625 26.484375 0 4.214844-2.101562 9.335938-.398437 11.445313 3.816406 2.105468 4.207032.398437 9.332032-3.816406 11.441407-6.527344 3.269531-13.699219 4.902343-20.871094 4.902343zm0 0"/></svg>